<mxfile host="app.diagrams.net" modified="2022-04-19T10:16:38.256Z" agent="5.0 (X11)" etag="gFd3fAwEYutCQDHkBW5S" version="17.4.2" type="github">
  <diagram id="GYhOJoof6raGVxeCeefJ" name="Page-1">
    <mxGraphModel dx="1102" dy="575" grid="1" gridSize="10" guides="1" tooltips="1" connect="1" arrows="1" fold="1" page="1" pageScale="1" pageWidth="850" pageHeight="1100" math="0" shadow="0">
      <root>
        <mxCell id="0" />
        <mxCell id="1" parent="0" />
        <mxCell id="6KGyysBaEeLL0fUPtLAd-69" value="&lt;div&gt;&amp;nbsp;Specific&lt;/div&gt;&lt;div&gt;&amp;nbsp;report&lt;br&gt;&lt;/div&gt;" style="rounded=0;whiteSpace=wrap;html=1;align=left;" parent="1" vertex="1">
          <mxGeometry x="470" y="550" width="310" height="150" as="geometry" />
        </mxCell>
        <mxCell id="6KGyysBaEeLL0fUPtLAd-13" value="&lt;div align=&quot;left&quot;&gt;&amp;nbsp;Agnostic&lt;/div&gt;" style="rounded=0;whiteSpace=wrap;html=1;align=left;" parent="1" vertex="1">
          <mxGeometry x="110" y="70" width="360" height="480" as="geometry" />
        </mxCell>
        <mxCell id="6KGyysBaEeLL0fUPtLAd-57" style="edgeStyle=orthogonalEdgeStyle;rounded=0;orthogonalLoop=1;jettySize=auto;html=1;exitX=0.5;exitY=1;exitDx=0;exitDy=0;entryX=0.5;entryY=0;entryDx=0;entryDy=0;" parent="1" source="6KGyysBaEeLL0fUPtLAd-2" target="6KGyysBaEeLL0fUPtLAd-3" edge="1">
          <mxGeometry relative="1" as="geometry" />
        </mxCell>
        <mxCell id="6KGyysBaEeLL0fUPtLAd-2" value="&lt;div&gt;Demultiplexing&lt;/div&gt;(bcl2fastq)" style="rounded=1;whiteSpace=wrap;html=1;fillColor=#d5e8d4;strokeColor=#82b366;" parent="1" vertex="1">
          <mxGeometry x="340" y="80" width="120" height="60" as="geometry" />
        </mxCell>
        <mxCell id="6KGyysBaEeLL0fUPtLAd-53" value="" style="edgeStyle=orthogonalEdgeStyle;rounded=0;orthogonalLoop=1;jettySize=auto;html=1;" parent="1" source="6KGyysBaEeLL0fUPtLAd-3" target="6KGyysBaEeLL0fUPtLAd-8" edge="1">
          <mxGeometry relative="1" as="geometry" />
        </mxCell>
        <mxCell id="6KGyysBaEeLL0fUPtLAd-56" style="edgeStyle=orthogonalEdgeStyle;rounded=0;orthogonalLoop=1;jettySize=auto;html=1;exitX=0.75;exitY=1;exitDx=0;exitDy=0;entryX=0.75;entryY=0;entryDx=0;entryDy=0;" parent="1" source="6KGyysBaEeLL0fUPtLAd-3" target="6KGyysBaEeLL0fUPtLAd-5" edge="1">
          <mxGeometry relative="1" as="geometry" />
        </mxCell>
        <mxCell id="6KGyysBaEeLL0fUPtLAd-62" style="edgeStyle=orthogonalEdgeStyle;rounded=0;orthogonalLoop=1;jettySize=auto;html=1;exitX=0;exitY=0.5;exitDx=0;exitDy=0;entryX=0.75;entryY=0;entryDx=0;entryDy=0;" parent="1" source="6KGyysBaEeLL0fUPtLAd-3" target="6KGyysBaEeLL0fUPtLAd-61" edge="1">
          <mxGeometry relative="1" as="geometry" />
        </mxCell>
        <mxCell id="6KGyysBaEeLL0fUPtLAd-3" value="QC, contamination, assembly&lt;br&gt;(AQUAMIS)" style="rounded=1;whiteSpace=wrap;html=1;fillColor=#d5e8d4;strokeColor=#82b366;" parent="1" vertex="1">
          <mxGeometry x="340" y="180" width="120" height="60" as="geometry" />
        </mxCell>
        <mxCell id="6KGyysBaEeLL0fUPtLAd-58" style="edgeStyle=orthogonalEdgeStyle;rounded=0;orthogonalLoop=1;jettySize=auto;html=1;exitX=0.25;exitY=1;exitDx=0;exitDy=0;entryX=0.25;entryY=0;entryDx=0;entryDy=0;" parent="1" source="6KGyysBaEeLL0fUPtLAd-5" target="6KGyysBaEeLL0fUPtLAd-11" edge="1">
          <mxGeometry relative="1" as="geometry" />
        </mxCell>
        <mxCell id="6KGyysBaEeLL0fUPtLAd-86" style="edgeStyle=orthogonalEdgeStyle;rounded=0;orthogonalLoop=1;jettySize=auto;html=1;exitX=0;exitY=0.5;exitDx=0;exitDy=0;entryX=1;entryY=0.5;entryDx=0;entryDy=0;" parent="1" source="6KGyysBaEeLL0fUPtLAd-5" target="6KGyysBaEeLL0fUPtLAd-84" edge="1">
          <mxGeometry relative="1" as="geometry" />
        </mxCell>
        <mxCell id="6KGyysBaEeLL0fUPtLAd-5" value="&lt;br&gt;&lt;div&gt;de novo assembly&lt;/div&gt;&lt;div&gt;&amp;amp; assembly qc&lt;br&gt;(shovill/quast)&lt;br&gt;&lt;/div&gt;&lt;div&gt;&lt;br&gt;&lt;/div&gt;" style="rounded=1;whiteSpace=wrap;html=1;fillColor=#d5e8d4;strokeColor=#82b366;" parent="1" vertex="1">
          <mxGeometry x="340" y="280" width="120" height="60" as="geometry" />
        </mxCell>
        <mxCell id="6KGyysBaEeLL0fUPtLAd-8" value="&lt;div&gt;typing&lt;/div&gt;(PubMLST/rMLST)" style="rounded=1;whiteSpace=wrap;html=1;fillColor=#d5e8d4;strokeColor=#82b366;" parent="1" vertex="1">
          <mxGeometry x="340" y="380" width="120" height="60" as="geometry" />
        </mxCell>
        <mxCell id="6KGyysBaEeLL0fUPtLAd-11" value="&lt;div&gt;AMR&lt;/div&gt;(CARD, Resfinder, AMR ++)" style="rounded=1;whiteSpace=wrap;html=1;fillColor=#fff2cc;strokeColor=#d6b656;" parent="1" vertex="1">
          <mxGeometry x="340" y="480" width="120" height="60" as="geometry" />
        </mxCell>
        <mxCell id="6KGyysBaEeLL0fUPtLAd-15" value="&amp;nbsp;Specific" style="rounded=0;whiteSpace=wrap;html=1;align=left;" parent="1" vertex="1">
          <mxGeometry x="470" y="70" width="310" height="480" as="geometry" />
        </mxCell>
        <mxCell id="6KGyysBaEeLL0fUPtLAd-16" value="&lt;div&gt;SeqSero&lt;br&gt;(Salmonella)&lt;br&gt;&lt;/div&gt;" style="rounded=1;whiteSpace=wrap;html=1;fillColor=#f8cecc;strokeColor=#b85450;" parent="1" vertex="1">
          <mxGeometry x="520" y="80" width="120" height="60" as="geometry" />
        </mxCell>
        <mxCell id="6KGyysBaEeLL0fUPtLAd-17" value="MTBSeq" style="rounded=1;whiteSpace=wrap;html=1;" parent="1" vertex="1">
          <mxGeometry x="520" y="240" width="120" height="60" as="geometry" />
        </mxCell>
        <mxCell id="6KGyysBaEeLL0fUPtLAd-19" value="&lt;div&gt;SISTR&lt;/div&gt;(Salmonella)" style="rounded=1;whiteSpace=wrap;html=1;fillColor=#f8cecc;strokeColor=#b85450;" parent="1" vertex="1">
          <mxGeometry x="520" y="160" width="120" height="60" as="geometry" />
        </mxCell>
        <mxCell id="6KGyysBaEeLL0fUPtLAd-20" value="&lt;div&gt;AgrVATE/spaTyper/Staphopia-sccmec&lt;/div&gt;&lt;div&gt;(S.aureus)&lt;br&gt;&lt;span&gt;&lt;/span&gt;&lt;/div&gt;" style="rounded=1;whiteSpace=wrap;html=1;" parent="1" vertex="1">
          <mxGeometry x="520" y="320" width="120" height="60" as="geometry" />
        </mxCell>
        <mxCell id="6KGyysBaEeLL0fUPtLAd-21" value="&lt;div&gt;emmtyper&lt;/div&gt;(Str.pyogenes)" style="rounded=1;whiteSpace=wrap;html=1;" parent="1" vertex="1">
          <mxGeometry x="520" y="400" width="120" height="60" as="geometry" />
        </mxCell>
        <mxCell id="6KGyysBaEeLL0fUPtLAd-22" value="&lt;div&gt;hicap&lt;/div&gt;&lt;div&gt;(H.influenzae)&lt;br&gt;&lt;/div&gt;" style="rounded=1;whiteSpace=wrap;html=1;" parent="1" vertex="1">
          <mxGeometry x="520" y="480" width="120" height="60" as="geometry" />
        </mxCell>
        <mxCell id="6KGyysBaEeLL0fUPtLAd-23" value="&lt;div&gt;hicap&lt;/div&gt;&lt;div&gt;(H.influenzae)&lt;br&gt;&lt;/div&gt;" style="rounded=1;whiteSpace=wrap;html=1;" parent="1" vertex="1">
          <mxGeometry x="650" y="80" width="120" height="60" as="geometry" />
        </mxCell>
        <mxCell id="6KGyysBaEeLL0fUPtLAd-24" value="&lt;div&gt;Kleborate&lt;br&gt;&lt;/div&gt;&lt;div&gt;(Klebsiella)&lt;br&gt;&lt;/div&gt;" style="rounded=1;whiteSpace=wrap;html=1;" parent="1" vertex="1">
          <mxGeometry x="650" y="160" width="120" height="60" as="geometry" />
        </mxCell>
        <mxCell id="6KGyysBaEeLL0fUPtLAd-25" value="&lt;div&gt;legsta&lt;/div&gt;&lt;div&gt;(Legionella)&lt;br&gt;&lt;/div&gt;" style="rounded=1;whiteSpace=wrap;html=1;" parent="1" vertex="1">
          <mxGeometry x="650" y="240" width="120" height="60" as="geometry" />
        </mxCell>
        <mxCell id="6KGyysBaEeLL0fUPtLAd-26" value="LisSero&lt;br&gt;&lt;div&gt;(Listeria)&lt;/div&gt;" style="rounded=1;whiteSpace=wrap;html=1;" parent="1" vertex="1">
          <mxGeometry x="650" y="320" width="120" height="60" as="geometry" />
        </mxCell>
        <mxCell id="6KGyysBaEeLL0fUPtLAd-27" value="&lt;div&gt;meningotype&lt;/div&gt;&lt;div&gt;(N.meningitidis)&lt;br&gt;&lt;/div&gt;" style="rounded=1;whiteSpace=wrap;html=1;" parent="1" vertex="1">
          <mxGeometry x="650" y="400" width="120" height="60" as="geometry" />
        </mxCell>
        <mxCell id="6KGyysBaEeLL0fUPtLAd-29" value="&lt;div&gt;ngmaster&lt;/div&gt;&lt;div&gt;(N.gonorrhoeae)&lt;br&gt;&lt;/div&gt;" style="rounded=1;whiteSpace=wrap;html=1;" parent="1" vertex="1">
          <mxGeometry x="650" y="480" width="120" height="60" as="geometry" />
        </mxCell>
        <mxCell id="6KGyysBaEeLL0fUPtLAd-34" value="1" style="ellipse;whiteSpace=wrap;html=1;aspect=fixed;" parent="1" vertex="1">
          <mxGeometry x="440" y="120" width="20" height="20" as="geometry" />
        </mxCell>
        <mxCell id="6KGyysBaEeLL0fUPtLAd-35" value="2" style="ellipse;whiteSpace=wrap;html=1;aspect=fixed;" parent="1" vertex="1">
          <mxGeometry x="440" y="220" width="20" height="20" as="geometry" />
        </mxCell>
        <mxCell id="6KGyysBaEeLL0fUPtLAd-36" value="3" style="ellipse;whiteSpace=wrap;html=1;aspect=fixed;" parent="1" vertex="1">
          <mxGeometry x="440" y="320" width="20" height="20" as="geometry" />
        </mxCell>
        <mxCell id="6KGyysBaEeLL0fUPtLAd-37" value="4" style="ellipse;whiteSpace=wrap;html=1;aspect=fixed;" parent="1" vertex="1">
          <mxGeometry x="440" y="420" width="20" height="20" as="geometry" />
        </mxCell>
        <mxCell id="6KGyysBaEeLL0fUPtLAd-38" value="5" style="ellipse;whiteSpace=wrap;html=1;aspect=fixed;" parent="1" vertex="1">
          <mxGeometry x="440" y="520" width="20" height="20" as="geometry" />
        </mxCell>
        <mxCell id="6KGyysBaEeLL0fUPtLAd-39" value="6" style="ellipse;whiteSpace=wrap;html=1;aspect=fixed;" parent="1" vertex="1">
          <mxGeometry x="620" y="120" width="20" height="20" as="geometry" />
        </mxCell>
        <mxCell id="6KGyysBaEeLL0fUPtLAd-40" value="7" style="ellipse;whiteSpace=wrap;html=1;aspect=fixed;" parent="1" vertex="1">
          <mxGeometry x="620" y="200" width="20" height="20" as="geometry" />
        </mxCell>
        <mxCell id="6KGyysBaEeLL0fUPtLAd-41" value="8" style="ellipse;whiteSpace=wrap;html=1;aspect=fixed;" parent="1" vertex="1">
          <mxGeometry x="620" y="280" width="20" height="20" as="geometry" />
        </mxCell>
        <mxCell id="6KGyysBaEeLL0fUPtLAd-43" value="9" style="ellipse;whiteSpace=wrap;html=1;aspect=fixed;" parent="1" vertex="1">
          <mxGeometry x="620" y="360" width="20" height="20" as="geometry" />
        </mxCell>
        <mxCell id="6KGyysBaEeLL0fUPtLAd-44" value="10" style="ellipse;whiteSpace=wrap;html=1;aspect=fixed;" parent="1" vertex="1">
          <mxGeometry x="620" y="440" width="20" height="20" as="geometry" />
        </mxCell>
        <mxCell id="6KGyysBaEeLL0fUPtLAd-45" value="11" style="ellipse;whiteSpace=wrap;html=1;aspect=fixed;" parent="1" vertex="1">
          <mxGeometry x="620" y="520" width="20" height="20" as="geometry" />
        </mxCell>
        <mxCell id="6KGyysBaEeLL0fUPtLAd-46" value="12" style="ellipse;whiteSpace=wrap;html=1;aspect=fixed;" parent="1" vertex="1">
          <mxGeometry x="750" y="120" width="20" height="20" as="geometry" />
        </mxCell>
        <mxCell id="6KGyysBaEeLL0fUPtLAd-47" value="13" style="ellipse;whiteSpace=wrap;html=1;aspect=fixed;" parent="1" vertex="1">
          <mxGeometry x="750" y="200" width="20" height="20" as="geometry" />
        </mxCell>
        <mxCell id="6KGyysBaEeLL0fUPtLAd-48" value="14" style="ellipse;whiteSpace=wrap;html=1;aspect=fixed;" parent="1" vertex="1">
          <mxGeometry x="750" y="280" width="20" height="20" as="geometry" />
        </mxCell>
        <mxCell id="6KGyysBaEeLL0fUPtLAd-49" value="15" style="ellipse;whiteSpace=wrap;html=1;aspect=fixed;" parent="1" vertex="1">
          <mxGeometry x="750" y="360" width="20" height="20" as="geometry" />
        </mxCell>
        <mxCell id="6KGyysBaEeLL0fUPtLAd-50" value="16" style="ellipse;whiteSpace=wrap;html=1;aspect=fixed;" parent="1" vertex="1">
          <mxGeometry x="750" y="440" width="20" height="20" as="geometry" />
        </mxCell>
        <mxCell id="6KGyysBaEeLL0fUPtLAd-51" value="17" style="ellipse;whiteSpace=wrap;html=1;aspect=fixed;" parent="1" vertex="1">
          <mxGeometry x="750" y="520" width="20" height="20" as="geometry" />
        </mxCell>
        <mxCell id="6KGyysBaEeLL0fUPtLAd-78" style="edgeStyle=orthogonalEdgeStyle;rounded=0;orthogonalLoop=1;jettySize=auto;html=1;exitX=0.5;exitY=1;exitDx=0;exitDy=0;entryX=0.5;entryY=0;entryDx=0;entryDy=0;" parent="1" source="6KGyysBaEeLL0fUPtLAd-61" target="6KGyysBaEeLL0fUPtLAd-76" edge="1">
          <mxGeometry relative="1" as="geometry" />
        </mxCell>
        <mxCell id="6KGyysBaEeLL0fUPtLAd-61" value="&lt;div&gt;host_filter &amp;amp; classification&lt;br&gt;&lt;/div&gt;&lt;div&gt;(Kraken2)&lt;/div&gt;" style="rounded=1;whiteSpace=wrap;html=1;fillColor=#d5e8d4;strokeColor=#82b366;" parent="1" vertex="1">
          <mxGeometry x="180" y="280" width="120" height="60" as="geometry" />
        </mxCell>
        <mxCell id="6KGyysBaEeLL0fUPtLAd-63" value="3.1" style="ellipse;whiteSpace=wrap;html=1;aspect=fixed;" parent="1" vertex="1">
          <mxGeometry x="280" y="320" width="20" height="20" as="geometry" />
        </mxCell>
        <mxCell id="6KGyysBaEeLL0fUPtLAd-64" value="&lt;div&gt;&amp;nbsp;Agnostic&lt;/div&gt;&lt;div&gt;&amp;nbsp;report&lt;br&gt;&lt;/div&gt;" style="rounded=0;whiteSpace=wrap;html=1;align=left;" parent="1" vertex="1">
          <mxGeometry x="110" y="550" width="360" height="150" as="geometry" />
        </mxCell>
        <mxCell id="6KGyysBaEeLL0fUPtLAd-65" value="Species-based results" style="rounded=0;whiteSpace=wrap;html=1;" parent="1" vertex="1">
          <mxGeometry x="570" y="590" width="120" height="60" as="geometry" />
        </mxCell>
        <mxCell id="6KGyysBaEeLL0fUPtLAd-66" value="&lt;div&gt;AQUAMIS&lt;br&gt;&lt;/div&gt;(2,3,3.1,4, 4.1)" style="rounded=0;whiteSpace=wrap;html=1;fillColor=#d5e8d4;strokeColor=#82b366;" parent="1" vertex="1">
          <mxGeometry x="210" y="560" width="120" height="60" as="geometry" />
        </mxCell>
        <mxCell id="6KGyysBaEeLL0fUPtLAd-68" value="hAMRonization&lt;br&gt;(5)" style="rounded=0;whiteSpace=wrap;html=1;" parent="1" vertex="1">
          <mxGeometry x="330" y="560" width="120" height="60" as="geometry" />
        </mxCell>
        <mxCell id="6KGyysBaEeLL0fUPtLAd-70" value="I" style="ellipse;whiteSpace=wrap;html=1;aspect=fixed;" parent="1" vertex="1">
          <mxGeometry x="110" y="70" width="20" height="20" as="geometry" />
        </mxCell>
        <mxCell id="6KGyysBaEeLL0fUPtLAd-71" value="II" style="ellipse;whiteSpace=wrap;html=1;aspect=fixed;" parent="1" vertex="1">
          <mxGeometry x="470" y="70" width="20" height="20" as="geometry" />
        </mxCell>
        <mxCell id="6KGyysBaEeLL0fUPtLAd-72" value="III" style="ellipse;whiteSpace=wrap;html=1;aspect=fixed;" parent="1" vertex="1">
          <mxGeometry x="110" y="550" width="20" height="20" as="geometry" />
        </mxCell>
        <mxCell id="6KGyysBaEeLL0fUPtLAd-74" value="IV" style="ellipse;whiteSpace=wrap;html=1;aspect=fixed;" parent="1" vertex="1">
          <mxGeometry x="470" y="550" width="20" height="20" as="geometry" />
        </mxCell>
        <mxCell id="6KGyysBaEeLL0fUPtLAd-76" value="&lt;div&gt;closest reference &amp;amp; species&lt;br&gt;&lt;/div&gt;&lt;div&gt;(mash)&lt;br&gt;&lt;/div&gt;" style="rounded=1;whiteSpace=wrap;html=1;fillColor=#d5e8d4;strokeColor=#82b366;" parent="1" vertex="1">
          <mxGeometry x="180" y="380" width="120" height="60" as="geometry" />
        </mxCell>
        <mxCell id="6KGyysBaEeLL0fUPtLAd-77" value="4.1" style="ellipse;whiteSpace=wrap;html=1;aspect=fixed;" parent="1" vertex="1">
          <mxGeometry x="280" y="420" width="20" height="20" as="geometry" />
        </mxCell>
        <mxCell id="6KGyysBaEeLL0fUPtLAd-84" value="&lt;div&gt;Plasmid detection&lt;/div&gt;(MOB Suite)" style="rounded=1;whiteSpace=wrap;html=1;" parent="1" vertex="1">
          <mxGeometry x="180" y="480" width="120" height="60" as="geometry" />
        </mxCell>
        <mxCell id="6KGyysBaEeLL0fUPtLAd-85" value="5.1" style="ellipse;whiteSpace=wrap;html=1;aspect=fixed;" parent="1" vertex="1">
          <mxGeometry x="280" y="520" width="20" height="20" as="geometry" />
        </mxCell>
        <mxCell id="6KGyysBaEeLL0fUPtLAd-88" value="&lt;div&gt;Summary&lt;/div&gt;&lt;div&gt;report&lt;br&gt;&lt;/div&gt;" style="rounded=0;whiteSpace=wrap;html=1;align=left;" parent="1" vertex="1">
          <mxGeometry x="110" y="700" width="670" height="200" as="geometry" />
        </mxCell>
        <mxCell id="6KGyysBaEeLL0fUPtLAd-89" value="Spreadsheet witch seleted metrics from agnostic &amp;amp; specific reports for each sample id" style="rounded=0;whiteSpace=wrap;html=1;" parent="1" vertex="1">
          <mxGeometry x="170" y="765" width="120" height="80" as="geometry" />
        </mxCell>
        <mxCell id="6KGyysBaEeLL0fUPtLAd-90" value="&lt;div&gt;AQUAMIS&lt;br&gt;&lt;/div&gt;&lt;div&gt;1. N50 for assembly (medium contig length)&lt;br&gt;&lt;/div&gt;&lt;div&gt;2. Num contigs&lt;/div&gt;&lt;div&gt;3. Average coverage depth&lt;/div&gt;&lt;div&gt;4. rMLST/PubMLST&lt;br&gt;&lt;/div&gt;" style="rounded=0;whiteSpace=wrap;html=1;" parent="1" vertex="1">
          <mxGeometry x="290" y="730" width="120" height="150" as="geometry" />
        </mxCell>
        <mxCell id="6KGyysBaEeLL0fUPtLAd-91" value="&lt;div&gt;MOB-Suite&lt;br&gt;&lt;/div&gt;&lt;div&gt;1. Resistance gene&lt;br&gt;&lt;/div&gt;&lt;div&gt;2. Allele&lt;br&gt;&lt;/div&gt;&lt;div&gt;3. Drug class&lt;/div&gt;&lt;div&gt;4. Resistance&lt;/div&gt;&lt;div&gt;5. Percent identity&lt;/div&gt;&lt;div&gt;6. Gene location (contig id)&lt;/div&gt;&lt;div&gt;7. Location (Chromosome/Plasmid)&lt;br&gt;&lt;/div&gt;" style="rounded=0;whiteSpace=wrap;html=1;" parent="1" vertex="1">
          <mxGeometry x="530" y="730" width="150" height="150" as="geometry" />
        </mxCell>
        <mxCell id="6KGyysBaEeLL0fUPtLAd-92" value="&lt;div&gt;hAMRonization:&lt;/div&gt;&lt;div&gt;html file, showing # of hits for each amr tool + allowing to compare individual hist between tools and viewing metadata (see link for details)&lt;br&gt;&lt;/div&gt;" style="rounded=0;whiteSpace=wrap;html=1;" parent="1" vertex="1">
          <mxGeometry x="410" y="730" width="120" height="150" as="geometry" />
        </mxCell>
        <mxCell id="6KGyysBaEeLL0fUPtLAd-93" value="&lt;div&gt;V&lt;/div&gt;" style="ellipse;whiteSpace=wrap;html=1;aspect=fixed;" parent="1" vertex="1">
          <mxGeometry x="110" y="700" width="20" height="20" as="geometry" />
        </mxCell>
        <mxCell id="6KGyysBaEeLL0fUPtLAd-95" value="&lt;div&gt;Species specific information&lt;/div&gt;" style="rounded=0;whiteSpace=wrap;html=1;" parent="1" vertex="1">
          <mxGeometry x="680" y="730" width="70" height="150" as="geometry" />
        </mxCell>
        <mxCell id="f30ukFIYP7I3eDNHcA3t-1" value="MOB Suite&lt;br&gt;(5.1)" style="rounded=0;whiteSpace=wrap;html=1;" vertex="1" parent="1">
          <mxGeometry x="270" y="620" width="120" height="60" as="geometry" />
        </mxCell>
      </root>
    </mxGraphModel>
  </diagram>
</mxfile>
